<mxfile host="app.diagrams.net" modified="2022-01-26T07:30:01.235Z" agent="5.0 (Windows NT 10.0; Win64; x64) AppleWebKit/537.36 (KHTML, like Gecko) Chrome/97.0.4692.99 Safari/537.36 Edg/97.0.1072.69" etag="IJXiFKgxcHDwaE21DljN" version="16.4.6" type="github">
  <diagram id="dgvY_rVGDL0mgEJ4h0jD" name="第 1 页">
    <mxGraphModel dx="983" dy="436" grid="1" gridSize="10" guides="1" tooltips="1" connect="1" arrows="1" fold="1" page="1" pageScale="1" pageWidth="827" pageHeight="1169" math="0" shadow="0">
      <root>
        <mxCell id="0" />
        <mxCell id="1" parent="0" />
        <mxCell id="iDCLeAGYW5DPLVCuSpxa-2" value="Pool" style="swimlane;childLayout=stackLayout;resizeParent=1;resizeParentMax=0;startSize=20;horizontal=0;horizontalStack=1;strokeWidth=1;" parent="1" vertex="1">
          <mxGeometry x="224" y="227" width="460" height="570" as="geometry" />
        </mxCell>
        <mxCell id="iDCLeAGYW5DPLVCuSpxa-3" value="学习机" style="swimlane;startSize=20;strokeWidth=1;" parent="iDCLeAGYW5DPLVCuSpxa-2" vertex="1">
          <mxGeometry x="20" width="150" height="570" as="geometry" />
        </mxCell>
        <mxCell id="iDCLeAGYW5DPLVCuSpxa-16" style="edgeStyle=orthogonalEdgeStyle;rounded=0;orthogonalLoop=1;jettySize=auto;html=1;exitX=0.5;exitY=1;exitDx=0;exitDy=0;fontFamily=Helvetica;strokeWidth=1;" parent="iDCLeAGYW5DPLVCuSpxa-3" source="iDCLeAGYW5DPLVCuSpxa-11" target="iDCLeAGYW5DPLVCuSpxa-14" edge="1">
          <mxGeometry relative="1" as="geometry" />
        </mxCell>
        <mxCell id="iDCLeAGYW5DPLVCuSpxa-11" value="画像/推荐" style="rounded=1;whiteSpace=wrap;html=1;absoluteArcSize=1;arcSize=14;strokeWidth=1;" parent="iDCLeAGYW5DPLVCuSpxa-3" vertex="1">
          <mxGeometry x="30" y="60" width="90" height="40" as="geometry" />
        </mxCell>
        <mxCell id="iDCLeAGYW5DPLVCuSpxa-18" style="edgeStyle=orthogonalEdgeStyle;rounded=0;orthogonalLoop=1;jettySize=auto;html=1;exitX=0.5;exitY=1;exitDx=0;exitDy=0;entryX=0.5;entryY=0;entryDx=0;entryDy=0;fontFamily=Helvetica;strokeWidth=1;" parent="iDCLeAGYW5DPLVCuSpxa-3" source="iDCLeAGYW5DPLVCuSpxa-14" target="iDCLeAGYW5DPLVCuSpxa-56" edge="1">
          <mxGeometry relative="1" as="geometry">
            <mxPoint x="75" y="250" as="targetPoint" />
          </mxGeometry>
        </mxCell>
        <mxCell id="iDCLeAGYW5DPLVCuSpxa-14" value="画像投递" style="rounded=1;whiteSpace=wrap;html=1;absoluteArcSize=1;arcSize=14;strokeWidth=1;fontFamily=Helvetica;" parent="iDCLeAGYW5DPLVCuSpxa-3" vertex="1">
          <mxGeometry x="28" y="130" width="94" height="40" as="geometry" />
        </mxCell>
        <mxCell id="iDCLeAGYW5DPLVCuSpxa-29" value="画像/推荐" style="rounded=1;whiteSpace=wrap;html=1;absoluteArcSize=1;arcSize=14;strokeWidth=1;" parent="iDCLeAGYW5DPLVCuSpxa-3" vertex="1">
          <mxGeometry x="30" y="390" width="90" height="40" as="geometry" />
        </mxCell>
        <mxCell id="iDCLeAGYW5DPLVCuSpxa-56" value="答题日志投递" style="rounded=1;whiteSpace=wrap;html=1;absoluteArcSize=1;arcSize=14;strokeWidth=1;fontFamily=Helvetica;" parent="iDCLeAGYW5DPLVCuSpxa-3" vertex="1">
          <mxGeometry x="28" y="206" width="94" height="40" as="geometry" />
        </mxCell>
        <mxCell id="iDCLeAGYW5DPLVCuSpxa-4" value="CoreSdk" style="swimlane;startSize=20;strokeWidth=1;" parent="iDCLeAGYW5DPLVCuSpxa-2" vertex="1">
          <mxGeometry x="170" width="150" height="570" as="geometry" />
        </mxCell>
        <mxCell id="iDCLeAGYW5DPLVCuSpxa-7" value="&lt;span&gt;1. 自适应测评&lt;/span&gt;&lt;br&gt;&lt;span&gt;2. 用户画像&lt;/span&gt;&lt;br&gt;&lt;span&gt;3. 薄弱点推题&lt;/span&gt;" style="rounded=1;whiteSpace=wrap;html=1;absoluteArcSize=1;arcSize=14;strokeWidth=1;align=left;" parent="iDCLeAGYW5DPLVCuSpxa-4" vertex="1">
          <mxGeometry x="30" y="55" width="90" height="50" as="geometry" />
        </mxCell>
        <mxCell id="iDCLeAGYW5DPLVCuSpxa-15" value="" style="endArrow=open;endSize=12;dashed=1;html=1;rounded=0;fontFamily=Helvetica;exitX=1;exitY=0.5;exitDx=0;exitDy=0;entryX=0;entryY=0.5;entryDx=0;entryDy=0;strokeWidth=1;" parent="iDCLeAGYW5DPLVCuSpxa-2" source="iDCLeAGYW5DPLVCuSpxa-11" target="iDCLeAGYW5DPLVCuSpxa-7" edge="1">
          <mxGeometry width="160" relative="1" as="geometry">
            <mxPoint x="216" y="230" as="sourcePoint" />
            <mxPoint x="376" y="230" as="targetPoint" />
          </mxGeometry>
        </mxCell>
        <mxCell id="iDCLeAGYW5DPLVCuSpxa-34" value="Use" style="endArrow=open;endSize=12;dashed=1;html=1;rounded=0;fontFamily=Helvetica;exitX=1;exitY=0.5;exitDx=0;exitDy=0;entryX=0;entryY=0.5;entryDx=0;entryDy=0;strokeWidth=1;" parent="iDCLeAGYW5DPLVCuSpxa-2" source="iDCLeAGYW5DPLVCuSpxa-29" target="iDCLeAGYW5DPLVCuSpxa-30" edge="1">
          <mxGeometry width="160" relative="1" as="geometry">
            <mxPoint x="216" y="290" as="sourcePoint" />
            <mxPoint x="376" y="290" as="targetPoint" />
          </mxGeometry>
        </mxCell>
        <mxCell id="iDCLeAGYW5DPLVCuSpxa-5" value="推荐引擎服务" style="swimlane;startSize=20;strokeWidth=1;" parent="iDCLeAGYW5DPLVCuSpxa-2" vertex="1">
          <mxGeometry x="320" width="140" height="570" as="geometry" />
        </mxCell>
        <mxCell id="iDCLeAGYW5DPLVCuSpxa-6" value="引擎不可用" style="strokeWidth=1;html=1;shape=mxgraph.flowchart.start_1;whiteSpace=wrap;fillColor=#f8cecc;strokeColor=#b85450;" parent="iDCLeAGYW5DPLVCuSpxa-5" vertex="1">
          <mxGeometry x="35" y="110" width="70" height="30" as="geometry" />
        </mxCell>
        <mxCell id="iDCLeAGYW5DPLVCuSpxa-19" value="引擎恢复" style="strokeWidth=1;html=1;shape=mxgraph.flowchart.start_1;whiteSpace=wrap;fillColor=#d5e8d4;strokeColor=#82b366;" parent="iDCLeAGYW5DPLVCuSpxa-5" vertex="1">
          <mxGeometry x="35" y="243" width="70" height="30" as="geometry" />
        </mxCell>
        <mxCell id="iDCLeAGYW5DPLVCuSpxa-28" style="edgeStyle=orthogonalEdgeStyle;rounded=0;orthogonalLoop=1;jettySize=auto;html=1;exitX=0.5;exitY=1;exitDx=0;exitDy=0;entryX=0.5;entryY=0;entryDx=0;entryDy=0;fontFamily=Helvetica;exitPerimeter=0;strokeWidth=1;" parent="iDCLeAGYW5DPLVCuSpxa-5" source="iDCLeAGYW5DPLVCuSpxa-19" target="iDCLeAGYW5DPLVCuSpxa-26" edge="1">
          <mxGeometry relative="1" as="geometry">
            <mxPoint x="70" y="295" as="sourcePoint" />
          </mxGeometry>
        </mxCell>
        <mxCell id="iDCLeAGYW5DPLVCuSpxa-26" value="引擎服务可用" style="rounded=1;whiteSpace=wrap;html=1;absoluteArcSize=1;arcSize=14;strokeWidth=1;fontFamily=Helvetica;" parent="iDCLeAGYW5DPLVCuSpxa-5" vertex="1">
          <mxGeometry x="20" y="300" width="100" height="45" as="geometry" />
        </mxCell>
        <mxCell id="iDCLeAGYW5DPLVCuSpxa-30" value="&lt;span&gt;1. 自适应测评&lt;/span&gt;&lt;br&gt;&lt;span&gt;2. 用户画像&lt;/span&gt;&lt;br&gt;&lt;span&gt;3. 薄弱点推题&lt;/span&gt;" style="rounded=1;whiteSpace=wrap;html=1;absoluteArcSize=1;arcSize=14;strokeWidth=1;align=left;" parent="iDCLeAGYW5DPLVCuSpxa-5" vertex="1">
          <mxGeometry x="25" y="385" width="90" height="50" as="geometry" />
        </mxCell>
        <mxCell id="iDCLeAGYW5DPLVCuSpxa-12" style="edgeStyle=orthogonalEdgeStyle;rounded=0;orthogonalLoop=1;jettySize=auto;html=1;exitX=0.5;exitY=0.5;exitDx=0;exitDy=0;exitPerimeter=0;entryX=0;entryY=0.5;entryDx=0;entryDy=0;fontFamily=Helvetica;strokeWidth=1;" parent="1" source="iDCLeAGYW5DPLVCuSpxa-8" target="iDCLeAGYW5DPLVCuSpxa-11" edge="1">
          <mxGeometry relative="1" as="geometry" />
        </mxCell>
        <mxCell id="iDCLeAGYW5DPLVCuSpxa-8" value="User" style="shape=umlActor;verticalLabelPosition=bottom;verticalAlign=top;html=1;outlineConnect=0;strokeWidth=1;" parent="1" vertex="1">
          <mxGeometry x="130" y="277" width="30" height="60" as="geometry" />
        </mxCell>
        <mxCell id="iDCLeAGYW5DPLVCuSpxa-31" style="edgeStyle=orthogonalEdgeStyle;rounded=0;orthogonalLoop=1;jettySize=auto;html=1;exitX=0.5;exitY=0.5;exitDx=0;exitDy=0;exitPerimeter=0;entryX=0;entryY=0.5;entryDx=0;entryDy=0;fontFamily=Helvetica;strokeWidth=1;" parent="1" source="iDCLeAGYW5DPLVCuSpxa-20" target="iDCLeAGYW5DPLVCuSpxa-29" edge="1">
          <mxGeometry relative="1" as="geometry" />
        </mxCell>
        <mxCell id="iDCLeAGYW5DPLVCuSpxa-20" value="User" style="shape=umlActor;verticalLabelPosition=bottom;verticalAlign=top;html=1;outlineConnect=0;strokeWidth=1;" parent="1" vertex="1">
          <mxGeometry x="130" y="607" width="30" height="60" as="geometry" />
        </mxCell>
        <mxCell id="iDCLeAGYW5DPLVCuSpxa-39" value="&lt;b&gt;&lt;font style=&quot;font-size: 14px&quot;&gt;支持范围，同步学相关场景，不应限制业务码：&lt;/font&gt;&lt;/b&gt;&lt;br&gt;com.iflytek.epd.engineservice.adaptive.service.impl.AdaptiveEvaluationServiceImpl#adaptiveEvaluationByCatalog&lt;br&gt;com.iflytek.epd.engineservice.adaptive.service.impl.AdaptiveRecommendServiceImpl#weakPointRecommend&lt;br&gt;com.iflytek.epd.engineservice.adaptive.service.impl.StudentPortraitServiceImpl#computePortraitByCatalogCode&lt;br&gt;com.iflytek.epd.engineservice.adaptive.service.impl.StudentPortraitServiceImpl#searchWeakPointByCatalogs" style="text;html=1;strokeColor=none;fillColor=none;align=left;verticalAlign=middle;whiteSpace=wrap;rounded=0;fontFamily=Helvetica;strokeWidth=1;" parent="1" vertex="1">
          <mxGeometry x="130" y="100" width="616" height="80" as="geometry" />
        </mxCell>
        <mxCell id="iDCLeAGYW5DPLVCuSpxa-41" value="&lt;font color=&quot;#ff0000&quot;&gt;画像不突变保证：&lt;br&gt;&lt;/font&gt;1. 画像快照&lt;br&gt;2. 学情恢复" style="text;html=1;strokeColor=none;fillColor=none;align=left;verticalAlign=middle;whiteSpace=wrap;rounded=0;fontFamily=Helvetica;fontSize=14;strokeWidth=1;" parent="1" vertex="1">
          <mxGeometry x="870" y="485" width="120" height="60" as="geometry" />
        </mxCell>
        <mxCell id="iDCLeAGYW5DPLVCuSpxa-45" value="数据同步服务" style="swimlane;startSize=20;strokeWidth=1;" parent="1" vertex="1">
          <mxGeometry x="684" y="227" width="140" height="570" as="geometry" />
        </mxCell>
        <mxCell id="iDCLeAGYW5DPLVCuSpxa-58" value="画像数据(新增)" style="strokeWidth=1;html=1;shape=mxgraph.flowchart.direct_data;whiteSpace=wrap;fontFamily=Helvetica;fontSize=14;fontColor=#FF0000;" parent="iDCLeAGYW5DPLVCuSpxa-45" vertex="1">
          <mxGeometry x="25" y="463" width="100" height="40" as="geometry" />
        </mxCell>
        <mxCell id="iDCLeAGYW5DPLVCuSpxa-59" value="&lt;font color=&quot;#000000&quot;&gt;答题日志&lt;/font&gt;" style="strokeWidth=1;html=1;shape=mxgraph.flowchart.direct_data;whiteSpace=wrap;fontFamily=Helvetica;fontSize=14;fontColor=#FF0000;" parent="iDCLeAGYW5DPLVCuSpxa-45" vertex="1">
          <mxGeometry x="20" y="383" width="100" height="40" as="geometry" />
        </mxCell>
        <mxCell id="iDCLeAGYW5DPLVCuSpxa-62" style="edgeStyle=orthogonalEdgeStyle;rounded=0;orthogonalLoop=1;jettySize=auto;html=1;exitX=1;exitY=0.5;exitDx=0;exitDy=0;entryX=1;entryY=0.5;entryDx=0;entryDy=0;entryPerimeter=0;fontFamily=Helvetica;fontSize=14;fontColor=#000000;strokeWidth=1;jumpStyle=arc;" parent="iDCLeAGYW5DPLVCuSpxa-45" source="iDCLeAGYW5DPLVCuSpxa-60" target="iDCLeAGYW5DPLVCuSpxa-58" edge="1">
          <mxGeometry relative="1" as="geometry">
            <Array as="points">
              <mxPoint x="126" y="138" />
              <mxPoint x="126" y="403" />
              <mxPoint x="125" y="403" />
            </Array>
          </mxGeometry>
        </mxCell>
        <mxCell id="iDCLeAGYW5DPLVCuSpxa-60" value="&lt;font color=&quot;#ff0000&quot;&gt;画像投递接口(新增)&lt;/font&gt;" style="rounded=1;whiteSpace=wrap;html=1;absoluteArcSize=1;arcSize=14;strokeWidth=1;fontFamily=Helvetica;" parent="iDCLeAGYW5DPLVCuSpxa-45" vertex="1">
          <mxGeometry x="20" y="113" width="90" height="50" as="geometry" />
        </mxCell>
        <mxCell id="iDCLeAGYW5DPLVCuSpxa-64" style="edgeStyle=orthogonalEdgeStyle;rounded=0;jumpStyle=arc;orthogonalLoop=1;jettySize=auto;html=1;exitX=0.5;exitY=1;exitDx=0;exitDy=0;entryX=0.5;entryY=0;entryDx=0;entryDy=0;entryPerimeter=0;fontFamily=Helvetica;fontSize=14;fontColor=#FF0000;strokeWidth=1;" parent="iDCLeAGYW5DPLVCuSpxa-45" source="iDCLeAGYW5DPLVCuSpxa-61" target="iDCLeAGYW5DPLVCuSpxa-59" edge="1">
          <mxGeometry relative="1" as="geometry" />
        </mxCell>
        <mxCell id="iDCLeAGYW5DPLVCuSpxa-61" value="答题日志投递接口" style="rounded=1;whiteSpace=wrap;html=1;absoluteArcSize=1;arcSize=14;strokeWidth=1;fontFamily=Helvetica;" parent="iDCLeAGYW5DPLVCuSpxa-45" vertex="1">
          <mxGeometry x="25" y="203" width="90" height="50" as="geometry" />
        </mxCell>
      </root>
    </mxGraphModel>
  </diagram>
</mxfile>
